<?xml version="1.0" encoding="utf-8"?>
<!-- Generator: Adobe Illustrator 18.0.0, SVG Export Plug-In . SVG Version: 6.00 Build 0)  -->
<!DOCTYPE svg PUBLIC "-//W3C//DTD SVG 1.1//EN" "http://www.w3.org/Graphics/SVG/1.1/DTD/svg11.dtd">
<svg version="1.1" id="Layer_1" xmlns="http://www.w3.org/2000/svg" xmlns:xlink="http://www.w3.org/1999/xlink" x="0px" y="0px"
	 viewBox="0 0 160 160" enable-background="new 0 0 160 160" xml:space="preserve">
<g id="XMLID_287_">
	<path id="XMLID_316_" fill="#44CDDE" d="M80,8c39.7,0,72,32.3,72,72s-32.3,72-72,72S8,119.7,8,80S40.3,8,80,8 M80,0
		C35.8,0,0,35.8,0,80s35.8,80,80,80s80-35.8,80-80S124.2,0,80,0L80,0z"/>
</g>
<g id="XMLID_286_">
	<path id="XMLID_312_" fill="#44CDDE" d="M80,24c30.9,0,56,25.1,56,56s-25.1,56-56,56s-56-25.1-56-56S49.1,24,80,24 M80,16
		c-35.3,0-64,28.7-64,64s28.7,64,64,64s64-28.7,64-64S115.3,16,80,16L80,16z"/>
</g>
<g id="XMLID_285_">
	<path id="XMLID_308_" fill="#44CDDE" d="M80,40c22.1,0,40,17.9,40,40s-17.9,40-40,40s-40-17.9-40-40S57.9,40,80,40 M80,32
		c-26.5,0-48,21.5-48,48s21.5,48,48,48s48-21.5,48-48S106.5,32,80,32L80,32z"/>
</g>
<g id="XMLID_284_">
	<path id="XMLID_304_" fill="#44CDDE" d="M80,56c13.2,0,24,10.8,24,24s-10.8,24-24,24S56,93.2,56,80S66.8,56,80,56 M80,48
		c-17.7,0-32,14.3-32,32s14.3,32,32,32s32-14.3,32-32S97.7,48,80,48L80,48z"/>
</g>
<g id="XMLID_283_">
	<path id="XMLID_300_" fill="#44CDDE" d="M80,72c4.4,0,8,3.6,8,8s-3.6,8-8,8s-8-3.6-8-8S75.6,72,80,72 M80,64c-8.8,0-16,7.2-16,16
		s7.2,16,16,16s16-7.2,16-16S88.8,64,80,64L80,64z"/>
</g>
</svg>
