<?xml version="1.0" encoding="utf-8"?>
<!-- Generator: Adobe Illustrator 18.0.0, SVG Export Plug-In . SVG Version: 6.00 Build 0)  -->
<!DOCTYPE svg PUBLIC "-//W3C//DTD SVG 1.1//EN" "http://www.w3.org/Graphics/SVG/1.1/DTD/svg11.dtd">
<svg version="1.1" id="Layer_1" xmlns="http://www.w3.org/2000/svg" xmlns:xlink="http://www.w3.org/1999/xlink" x="0px" y="0px"
	 viewBox="0 0 10 10" enable-background="new 0 0 10 10" xml:space="preserve">
<path d="M10,9.3L7.1,6.4C7.7,5.8,8,4.9,8,4c0-2.2-1.8-4-4-4S0,1.8,0,4c0,2.2,1.8,4,4,4c0.9,0,1.8-0.3,2.4-0.9L9.3,10L10,9.3z M1,4
	c0-1.7,1.3-3,3-3s3,1.3,3,3c0,1.7-1.3,3-3,3S1,5.7,1,4z"/>
</svg>
