<svg xmlns="http://www.w3.org/2000/svg" viewBox="0 0 160 36" enable-background="new 0 0 160 36"><g fill="#21C4D9"><path d="M53.5 15.1c-.1.2-.3.4-.6.3-.7-.3-1.6-.5-2.4-.5-1.3 0-2.6.4-2.6 1.7 0 .7.4 1.1 1.7 1.5l.9.3c1.9.6 2.7 1.5 2.7 3.1 0 2.9-2 4.8-5.7 4.8-1.4 0-2.7-.2-3.7-.6-.3-.1-.4-.4-.3-.6l.4-1.5c.1-.2.3-.4.6-.3.9.4 2 .6 2.9.6 1.6 0 2.8-.6 2.8-1.9 0-.8-.5-1.1-1.7-1.5l-1-.3c-1.8-.6-2.6-1.7-2.6-3.4 0-2.9 2.4-4.5 5.7-4.5 1 0 2.1.2 3 .5.3.1.4.4.3.6l-.4 1.7zM59.8 7.4c.3 0 .4.2.4.5l-2 10.2c1.9-1.4 3.5-3 4.9-4.8.2-.2.5-.4.8-.4h2.2c.2 0 .3.2.2.4-1.4 2-3 3.8-4.7 5.3l2.7 6.9c.1.2-.1.5-.3.5h-2.3c-.3 0-.5-.2-.7-.5l-1.9-5.1c-.6.4-1.1.7-1.6.9l-.8 4.2c-.1.3-.3.5-.6.5h-2c-.2 0-.4-.2-.4-.5l3.4-17.6c.1-.3.3-.5.6-.5h2.1zM69.9 12.9c.3 0 .4.2.4.5l-1.3 6.9c-.1.5-.2 1.2-.2 1.8 0 .8.5 1.3 1.5 1.3s2.3-.5 3.2-1.3l1.7-8.7c.1-.3.3-.5.6-.5h2c.2 0 .4.2.4.5l-1.8 9-.7 3.2c-1 4.2-3 6.1-6.8 6.1-.9 0-1.7-.1-2.4-.3-.3-.1-.4-.3-.4-.6l.3-1.4c.1-.3.3-.4.6-.4.6.1 1.2.2 1.8.2 2.3 0 3.6-1 4.1-3.6l.2-1c-1 .9-2.5 1.4-3.9 1.4-2.3 0-3.5-1.1-3.5-2.9 0-1.1.2-2.3.5-3.5l1.2-6.3c.1-.3.3-.5.6-.5h1.9zM87.6 15.1c-.1.2-.3.4-.6.3-.7-.3-1.6-.5-2.4-.5-1.3 0-2.6.4-2.6 1.7 0 .7.4 1.1 1.7 1.5l.9.3c1.9.6 2.7 1.5 2.7 3.1 0 2.9-2 4.8-5.7 4.8-1.4 0-2.7-.2-3.7-.6-.3-.1-.4-.4-.3-.6l.4-1.5c.1-.2.3-.4.6-.3.9.4 2 .6 2.9.6 1.6 0 2.8-.6 2.8-1.9 0-.8-.5-1.1-1.7-1.5l-1-.3c-1.8-.6-2.6-1.7-2.6-3.4 0-2.9 2.4-4.5 5.7-4.5 1 0 2.1.2 3 .5.3.1.4.4.3.6l-.4 1.7zM99.1 15.4c-.1.2-.3.3-.6.2-.7-.3-1.5-.5-2.4-.5-2.8 0-4.6 2.4-4.6 5.6 0 1.9.7 3.1 2.8 3.1.9 0 1.9-.2 2.8-.5.2-.1.4.1.4.3l-.2 1.6c0 .3-.2.6-.5.7-1 .3-2 .5-3.2.5-3.5 0-5.1-2-5.1-5.3 0-4.7 2.6-8.6 7.7-8.6 1.2 0 2.3.2 3.1.6.3.1.4.4.3.7l-.5 1.6zM101.3 13.9c0-.3.2-.6.5-.6 1.3-.4 2.9-.7 4.3-.7 2.7 0 4.4.8 4.4 3.1 0 .5-.1 1.1-.2 1.7l-1 5.5c-.2.8-.1 1.3.3 1.5.2.1.4.3.4.6l-.2.8c-.1.3-.3.5-.6.6-.3.1-.6.1-1 .1-1.2 0-1.8-.6-1.9-1.6h-.1c-.9 1-2.2 1.6-3.8 1.6-2.3 0-3.8-1.2-3.8-3.5 0-3.1 2.5-5.4 8-5.4h.7c.1-.4.1-.8.1-1.1 0-1.1-.5-1.6-2.2-1.6-1.1 0-2.4.3-3.6.7-.2.1-.4-.1-.4-.3l.1-1.4zm5.1 5.8c-2.7 0-4.7.9-4.7 2.8 0 .9.5 1.4 1.7 1.4 1.1 0 2.3-.6 3-1.3l.6-2.9h-.6zM115.6 12.9c.3 0 .5.2.4.5l-.1.9c1.3-1.1 3-1.8 4.7-1.8 2 0 3.4 1.2 3.4 3.1 0 .9-.1 1.7-.3 2.5l-1.4 7.4c-.1.3-.3.5-.6.5h-2c-.2 0-.4-.2-.4-.5l1.3-6.8c.1-.7.2-1.4.2-1.9 0-1-.5-1.5-1.7-1.5s-2.6.6-3.6 1.6l-1.6 8.6c-.1.3-.3.5-.6.5h-2c-.3 0-.4-.2-.4-.5l2.3-12.1c.1-.3.3-.5.6-.5h1.8zM128.9 12.9c.3 0 .5.2.4.5l-.1.9c1.3-1.1 3-1.8 4.7-1.8 2 0 3.4 1.2 3.4 3.1 0 .9-.1 1.7-.3 2.5l-1.4 7.4c-.1.3-.3.5-.6.5h-2c-.3 0-.4-.2-.4-.5l1.3-6.8c.1-.7.2-1.4.2-1.9 0-1-.5-1.5-1.7-1.5s-2.6.6-3.6 1.6l-1.6 8.6c-.1.3-.3.5-.6.5h-2c-.3 0-.4-.2-.4-.5l2.3-12.1c.1-.3.3-.5.6-.5h1.8zM141.4 20.7c-.1.4 0 .9 0 1.2.2 1.3 1.3 2 3 2 1.2 0 2.5-.2 3.6-.5.2-.1.4.1.4.3l-.2 1.5c0 .3-.2.5-.5.6-1.2.4-2.6.6-3.9.6-3.7 0-5.5-1.6-5.5-5.2 0-3.1 1-6 3.2-7.5 1.1-.8 2.5-1.2 4.2-1.2 3.1 0 4.5 1.8 4.5 4.4 0 .9-.1 2.1-.4 3.3-.1.3-.3.4-.6.4h-7.8zm5.7-2.1c.1-.4.2-1 .2-1.6 0-1.2-.5-2.1-1.9-2.1-2 0-3.2 1.5-3.6 3.6h5.3zM155.1 12.9c.3 0 .5.2.4.5l-.1 1.1h.1c1-1.2 2.4-1.8 3.8-1.8h.4c.3 0 .4.3.3.5l-.5 1.7c-.1.3-.4.5-.6.5-1.4.1-2.7.4-3.6 1.1l-1.7 9c-.1.3-.3.5-.6.5h-2c-.2 0-.4-.2-.4-.5l2.3-12.1c.1-.3.3-.5.6-.5h1.6z"/></g><path fill="#21C4D9" d="M21.6 15.6c3.6-3.6 8.4-5.4 13.2-5.4.4 1 .7 2.1.7 3.2h-.8c-4.1 0-8 1.6-10.9 4.5-2.9 2.9-4.5 6.8-4.5 10.9v.1h-3.2c0-4.9 1.8-9.7 5.5-13.3zm18.9 6.1v-.8c0-1.2-.3-2.4-.8-3.4-1.6-.7-3.3-1-5-1-3.2 0-6.3 1.2-8.7 3.6-2.4 2.4-3.6 5.6-3.6 8.7h3.2c0-2.3.9-4.7 2.6-6.5 1.7-1.7 4-2.6 6.3-2.6h.4c2 0 4 .7 5.6 2zm-32-3.8zm30.6 6.5c-1.2-1.2-2.7-1.8-4.2-1.8h-.4c-1.5 0-3 .6-4.2 1.8-1.2 1.2-1.8 2.8-1.8 4.4h3.1c.2-1 .4-1.5 1-2.1.6-.6 1.3-.9 2.1-.8.8 0 1.5.3 2.1.8.2.2.4.4.5.7.9-.7 1.6-1.5 2.2-2.5-.1-.2-.2-.4-.4-.5zm-26 4.3c0-11.3 8.7-20.6 19.7-21.5-1.7-1.7-4.1-2.8-6.7-2.8-4.9 0-8.9 3.7-9.4 8.4-.8-.5-1.8-.8-2.8-.8-3 0-5.7 3-5.3 6-.8-.4-1.7-.7-2.7-.7-3.2 0-5.8 2.6-5.8 5.8 0 2.9 2.1 5.3 4.9 5.7.2 0 .4.1.7.1l7.4-.2zm-4.6-10.9zm0 0z"/></svg>